HIERARCHY
ROOT Hips
{
	OFFSET 46.182800 2.606664 96.069199
	CHANNELS 6 Xposition Yposition Zposition Xrotation Yrotation Zrotation
	JOINT spine
	{
		OFFSET 0.000000 -0.467660 8.132492
		CHANNELS 3 Xrotation Yrotation Zrotation
		JOINT spine1
		{
			OFFSET 0.000000 -0.000002 10.349800
			CHANNELS 3 Xrotation Yrotation Zrotation
			JOINT spine2
			{
				OFFSET 0.000000 -0.000002 9.916992
				CHANNELS 3 Xrotation Yrotation Zrotation
				JOINT Neck
				{
					OFFSET 0.000000 -1.213904 25.461006
					CHANNELS 3 Xrotation Yrotation Zrotation
					JOINT Head
					{
						OFFSET 0.000000 -0.000001 7.692444
						CHANNELS 3 Xrotation Yrotation Zrotation
						End Site
						{
							OFFSET 0.000000 6.140627 18.619995
						}
					}
				}
				JOINT RightShoulder
				{
					OFFSET -4.175751 0.581443 10.709602
					CHANNELS 3 Xrotation Yrotation Zrotation
					JOINT RightArm
					{
						OFFSET 0.000000 -0.000002 14.046600
						CHANNELS 3 Xrotation Yrotation Zrotation
						JOINT RightArmRoll
						{
							OFFSET 0.000000 -0.000001 7.090988
							CHANNELS 3 Xrotation Yrotation Zrotation
							JOINT RightForeArm
							{
								OFFSET 0.000000 -0.000003 20.653503
								CHANNELS 3 Xrotation Yrotation Zrotation
								JOINT RightForeArmRoll
								{
									OFFSET 0.000000 -0.000001 7.957184
									CHANNELS 3 Xrotation Yrotation Zrotation
									JOINT RightHand
									{
										OFFSET 0.000000 -0.000003 15.968292
										CHANNELS 3 Xrotation Yrotation Zrotation
										End Site
										{
											OFFSET 0.000000 0.000000 0.100006
										}
									}
								}
							}
						}
					}
				}
				JOINT LeftShoulder
				{
					OFFSET 4.175751 0.581443 10.709602
					CHANNELS 3 Xrotation Yrotation Zrotation
					JOINT LeftArm
					{
						OFFSET 0.000000 -0.000002 14.046600
						CHANNELS 3 Xrotation Yrotation Zrotation
						JOINT LeftArmRoll
						{
							OFFSET 0.000000 -0.000001 7.090973
							CHANNELS 3 Xrotation Yrotation Zrotation
							JOINT LeftForeArm
							{
								OFFSET 0.000000 -0.000003 20.653503
								CHANNELS 3 Xrotation Yrotation Zrotation
								JOINT LeftForeArmRoll
								{
									OFFSET 0.000000 -0.000001 7.957184
									CHANNELS 3 Xrotation Yrotation Zrotation
									JOINT LeftHand
									{
										OFFSET 0.000000 -0.000003 15.968307
										CHANNELS 3 Xrotation Yrotation Zrotation
										End Site
										{
											OFFSET 0.000000 0.000000 0.100006
										}
									}
								}
							}
						}
					}
				}
			}
		}
	}
	JOINT RightUpLeg
	{
		OFFSET -7.208340 1.108840 -1.321823
		CHANNELS 3 Xrotation Yrotation Zrotation
		JOINT RightUpLegRoll
		{
			OFFSET 0.000000 -0.000003 18.723801
			CHANNELS 3 Xrotation Yrotation Zrotation
			JOINT RightLeg
			{
				OFFSET 0.000000 0.000004 -23.186600
				CHANNELS 3 Xrotation Yrotation Zrotation
				JOINT RightLegRoll
				{
					OFFSET 0.000000 -0.000004 23.262398
					CHANNELS 3 Xrotation Yrotation Zrotation
					JOINT RightFoot
					{
						OFFSET 0.000000 -0.000003 19.362099
						CHANNELS 3 Xrotation Yrotation Zrotation
						JOINT RightToeBase
						{
							OFFSET 0.000000 -0.000003 16.185699
							CHANNELS 3 Xrotation Yrotation Zrotation
							End Site
							{
								OFFSET 0.006859 0.903521 7.838623
							}
						}
					}
				}
			}
		}
	}
	JOINT LeftUpLeg
	{
		OFFSET 7.208340 1.108840 -1.321823
		CHANNELS 3 Xrotation Yrotation Zrotation
		JOINT LeftUpLegRoll
		{
			OFFSET 0.000000 -0.000003 18.723900
			CHANNELS 3 Xrotation Yrotation Zrotation
			JOINT LeftLeg
			{
				OFFSET 0.000000 -0.000004 23.186501
				CHANNELS 3 Xrotation Yrotation Zrotation
				JOINT LeftLegRoll
				{
					OFFSET 0.000000 -0.000004 23.477509
					CHANNELS 3 Xrotation Yrotation Zrotation
					JOINT LeftFoot
					{
						OFFSET 0.000000 -0.000003 19.147003
						CHANNELS 3 Xrotation Yrotation Zrotation
						JOINT LeftToeBase
						{
							OFFSET 0.000000 -0.000003 16.185699
							CHANNELS 3 Xrotation Yrotation Zrotation
							End Site
							{
								OFFSET -0.030746 0.903521 7.838623
							}
						}
					}
				}
			}
		}
	}
}
MOTION
Frames: 5
Frame Time: 0.041667
49.179195 -5.766255 86.598602 -1.328673 0.505958 -0.742346 -0.377006 -0.397225 0.052624 3.249223 -0.794145 0.106505 4.894361 -0.792812 0.116011 -3.163073 -8.672628 -4.934260 7.739538 14.279171 -5.862298 -27.486017 -19.627409 -35.628951 -142.460220 -198.659412 -64.387415 -0.000000 0.000001 -0.000008 51.318927 8.957648 3.476471 -0.000000 -0.000001 -3.000891 -5.000206 -7.998924 0.000155 -24.277895 18.306529 30.788871 -145.184509 195.813532 67.108705 0.000000 0.000015 0.000013 36.501979 -9.727806 -0.622070 -0.000001 -0.000016 3.002800 -5.000241 7.998785 -0.000163 -21.852244 -162.055431 0.506147 -179.999991 0.000006 -0.955006 133.047755 7.188857 2.005624 0.000001 0.000002 3.377690 84.245595 5.421512 6.574976 25.719999 -7.349079 0.335384 -17.346071 162.845138 2.135993 -0.000021 -0.000006 -1.349000 -47.278023 -10.758607 -4.328084 -0.000001 -0.000000 -4.976589 84.855265 -5.592867 -5.899673 27.597256 7.266193 -2.537845 
49.188698 -5.793437 86.799393 -1.335988 0.500894 -0.740931 -0.398667 -0.395162 0.054225 3.205905 -0.790037 0.109533 4.851041 -0.788668 0.118989 -3.015928 -8.714369 -4.926853 7.689767 14.297649 -5.853797 -27.461670 -19.819643 -35.572308 -142.230288 -198.402160 -64.778832 -0.000001 -0.000001 -0.000008 51.181780 8.915555 3.412519 -0.000002 0.000000 -3.000882 -5.000205 -7.998924 0.000156 -24.194856 18.456506 30.648107 -144.975123 195.503168 67.494393 0.000000 0.000016 0.000013 36.339386 -9.712223 -0.571707 0.000002 -0.000015 3.002810 -5.000244 7.998785 -0.000163 -21.486385 -162.021267 0.673754 -179.999991 0.000004 -0.965006 133.794199 7.024948 1.898437 -0.000001 0.000001 3.282309 83.772530 5.459126 6.338392 25.792389 -7.348360 0.426236 -17.043641 162.814908 2.019050 -0.000021 -0.000005 -1.343820 -46.546848 -10.660278 -4.168925 -0.000001 0.000000 -4.806848 84.309601 -5.617852 -5.730126 27.728350 7.254823 -2.692031 
49.204895 -5.776872 87.080803 -1.342792 0.494045 -0.736785 -0.420954 -0.392304 0.055679 3.161326 -0.784345 0.112263 4.806471 -0.782944 0.121651 -2.864283 -8.769602 -4.920099 7.638534 14.325591 -5.845335 -27.441260 -20.026762 -35.519835 -142.001859 -198.141124 -65.195330 -0.000003 -0.000001 -0.000007 51.042885 8.868897 3.345400 -0.000002 0.000001 -3.000869 -5.000204 -7.998924 0.000155 -24.107095 18.606246 30.499971 -144.765641 195.183529 67.869869 0.000002 0.000018 0.000013 36.190737 -9.687603 -0.525331 0.000002 -0.000017 3.002829 -5.000242 7.998785 -0.000162 -21.104432 -161.984138 0.849693 -179.999991 0.000006 -0.976002 134.578455 6.849216 1.787640 -0.000000 0.000003 3.179819 83.256345 5.502589 6.086148 25.881421 -7.347188 0.538096 -16.731546 162.785237 1.898774 -0.000022 -0.000005 -1.338361 -45.783711 -10.553073 -4.003248 -0.000000 -0.000001 -4.625450 83.720060 -5.647135 -5.550642 27.883479 7.240555 -2.874627 
49.194496 -5.823547 87.310196 -1.349190 0.485627 -0.730639 -0.443806 -0.388754 0.057000 3.115637 -0.777271 0.114728 4.760778 -0.775840 0.124030 -2.707293 -8.836035 -4.913494 7.585014 14.361045 -5.836539 -27.423671 -20.247606 -35.470081 -141.775357 -197.875197 -65.632804 -0.000003 -0.000000 -0.000008 50.902135 8.818232 3.275391 0.000000 0.000001 -3.000860 -5.000205 -7.998925 0.000159 -24.015148 18.756512 30.345441 -144.555353 194.854601 68.238173 0.000002 0.000016 0.000014 36.054096 -9.654758 -0.482458 0.000001 -0.000016 3.002838 -5.000244 7.998784 -0.000162 -20.709079 -161.943457 1.031811 -179.999991 0.000005 -0.986998 135.395086 6.664458 1.674941 -0.000001 0.000003 3.071151 82.702430 5.552401 5.821752 25.983749 -7.345447 0.666841 -16.410098 162.757220 1.775367 -0.000022 -0.000004 -1.332690 -44.991576 -10.437775 -3.832741 0.000001 -0.000001 -4.434190 83.093151 -5.681016 -5.363310 28.057007 7.223520 -3.079027 
49.172699 -5.799675 87.660706 -1.355288 0.475856 -0.723219 -0.467147 -0.384614 0.058201 3.068947 -0.769016 0.116955 4.714094 -0.767560 0.126159 -2.544170 -8.911399 -4.906544 7.528397 14.401954 -5.827027 -27.408036 -20.480507 -35.421566 -141.551286 -197.603602 -66.087333 -0.000000 -0.000001 -0.000007 50.759364 8.764145 3.203004 0.000002 -0.000001 -3.000849 -5.000206 -7.998925 0.000158 -23.919529 18.907992 30.185468 -144.344150 194.516507 68.600200 0.000001 0.000016 0.000014 35.927782 -9.614805 -0.442356 0.000000 -0.000016 3.002850 -5.000243 7.998784 -0.000163 -20.302464 -161.902394 1.219454 -179.999991 0.000005 -0.999007 136.239092 6.472375 1.561276 -0.000001 0.000000 2.957240 82.116216 5.608843 5.548601 26.096240 -7.343048 0.808349 -16.080133 162.730951 1.649491 -0.000020 -0.000003 -1.326870 -44.173869 -10.315059 -3.659033 -0.000000 -0.000002 -4.234871 82.435022 -5.719993 -5.170180 28.243191 7.203964 -3.298621 
